<?xml version="1.0" standalone="no"?>
<!DOCTYPE svg PUBLIC "-//W3C//DTD SVG 20010904//EN"
 "http://www.w3.org/TR/2001/REC-SVG-20010904/DTD/svg10.dtd">
<svg version="1.0" xmlns="http://www.w3.org/2000/svg"
 width="450.000000pt" height="445.000000pt" viewBox="0 0 450.000000 445.000000"
 preserveAspectRatio="xMidYMid meet">
<metadata>
Created by potrace 1.10, written by Peter Selinger 2001-2011
</metadata>
<g transform="translate(0.000000,445.000000) scale(0.100000,-0.100000)"
fill="#000000" stroke="none">
<path d="M1955 4389 c-38 -5 -89 -14 -113 -19 -23 -6 -60 -10 -82 -10 -21 0
-42 -4 -45 -10 -3 -5 -19 -10 -36 -10 -16 0 -37 -4 -47 -9 -9 -5 -42 -14 -72
-21 -30 -7 -60 -16 -65 -21 -6 -4 -37 -17 -70 -30 -33 -12 -65 -26 -71 -31 -7
-5 -16 -8 -20 -7 -14 3 -74 -25 -74 -33 0 -4 -7 -8 -15 -8 -9 0 -39 -12 -67
-27 -28 -16 -62 -34 -77 -42 -14 -8 -52 -33 -85 -55 -32 -23 -68 -48 -81 -56
-64 -44 -181 -145 -248 -215 -128 -135 -173 -189 -244 -295 -104 -154 -202
-348 -248 -490 -10 -30 -21 -64 -26 -75 -14 -34 -37 -126 -61 -240 -20 -99
-23 -138 -23 -385 0 -303 6 -351 69 -581 77 -279 205 -541 380 -778 95 -127
329 -363 444 -446 108 -78 252 -166 263 -160 4 3 12 -3 18 -12 5 -10 13 -15
17 -11 4 4 20 -4 36 -17 16 -14 34 -25 40 -25 5 0 26 -7 46 -16 21 -9 48 -21
62 -26 14 -6 33 -14 42 -19 10 -5 26 -9 36 -9 10 0 22 -4 28 -9 5 -4 32 -14
59 -21 28 -7 60 -19 72 -26 12 -8 29 -11 37 -8 9 3 16 2 16 -3 0 -9 31 -16
195 -43 146 -25 263 -32 450 -27 110 3 227 10 260 16 33 5 87 15 120 20 262
45 609 210 857 410 94 76 257 238 312 311 22 30 49 64 58 74 10 11 20 28 24
38 3 10 10 18 15 18 5 0 9 7 9 15 0 8 5 15 10 15 6 0 10 5 10 11 0 6 8 23 19
37 44 62 141 247 141 268 0 8 5 14 10 14 6 0 10 6 10 13 0 8 18 58 40 113 22
54 45 124 51 154 6 30 15 64 19 75 5 11 11 36 14 55 2 19 12 78 21 130 32 185
24 574 -15 730 -5 19 -16 71 -26 115 -21 97 -88 294 -120 353 -13 23 -24 48
-24 55 0 19 -121 227 -132 227 -5 0 -6 5 -3 10 3 6 -1 13 -9 16 -9 3 -16 12
-16 18 0 15 -87 141 -149 217 -25 30 -97 106 -160 169 -179 177 -372 316 -586
421 -159 78 -394 159 -463 159 -19 0 -31 4 -27 10 4 6 -15 10 -49 10 -31 0
-56 4 -56 8 0 4 -17 9 -37 11 -21 1 -54 5 -73 7 -70 10 -427 12 -495 3z m480
-29 c492 -57 982 -300 1330 -661 403 -417 624 -961 625 -1534 0 -251 -30 -442
-106 -673 -277 -845 -1065 -1411 -1966 -1412 -775 -1 -1498 414 -1901 1091
-371 624 -410 1402 -102 2037 279 575 787 979 1405 1116 64 14 147 30 185 35
99 12 423 13 530 1z"/>
<path d="M1878 4334 c-928 -135 -1654 -889 -1727 -1796 -37 -456 142 -949 471
-1293 55 -58 97 -105 93 -105 -4 0 -2 -7 5 -15 8 -9 9 -15 2 -15 -11 0 -27 19
-27 33 0 4 -4 7 -10 7 -15 0 -13 -23 3 -42 8 -10 12 -18 7 -18 -4 0 -1 -7 6
-16 17 -21 21 -46 6 -41 -7 2 -12 9 -12 15 0 6 -6 17 -14 24 -9 8 -11 8 -7 1
3 -6 2 -15 -4 -18 -8 -5 -7 -11 1 -21 6 -8 8 -14 4 -14 -5 0 0 -9 10 -20 10
-11 14 -20 10 -20 -4 0 0 -9 10 -20 10 -11 14 -20 10 -20 -5 0 2 -11 15 -25
34 -36 12 -31 -29 8 -20 17 -27 22 -17 10 11 -13 16 -23 11 -23 -4 0 -2 -7 5
-15 7 -8 9 -15 5 -15 -5 0 0 -9 10 -20 10 -11 14 -20 10 -20 -5 0 6 -16 25
-35 38 -39 31 -48 -9 -12 l-26 22 23 -26 c12 -14 20 -28 17 -30 -2 -3 12 -21
33 -40 l37 -34 -34 38 c-44 47 -27 49 19 2 19 -19 30 -35 25 -35 -27 0 128
-128 270 -225 122 -82 363 -201 505 -250 130 -45 272 -79 410 -99 122 -17 368
-31 358 -21 -4 4 -65 11 -135 16 -367 24 -799 164 -1123 364 -109 68 -214 145
-206 152 3 3 22 -8 43 -25 178 -139 488 -292 766 -376 256 -78 447 -106 692
-104 l180 1 -185 7 c-209 8 -266 16 -465 65 -248 61 -485 145 -691 247 -121
59 -341 194 -331 204 2 3 47 -22 98 -56 184 -119 401 -218 664 -303 334 -108
555 -149 787 -145 l103 1 -135 7 c-215 12 -332 36 -625 126 -296 92 -537 186
-695 273 -92 49 -203 121 -197 127 2 3 40 -17 84 -45 201 -124 422 -217 817
-340 303 -95 499 -133 666 -129 52 1 43 2 -43 9 -177 12 -329 51 -708 178
-370 125 -518 182 -655 255 -103 55 -228 135 -221 142 3 3 32 -12 64 -34 92
-62 217 -126 363 -186 142 -57 715 -254 835 -286 90 -25 230 -50 264 -49 14 1
-8 7 -49 15 -108 19 -234 57 -404 120 -82 31 -268 96 -414 145 -145 49 -312
111 -371 138 -114 51 -256 130 -248 138 3 2 41 -16 84 -41 117 -67 258 -124
568 -229 154 -52 345 -120 425 -150 189 -72 392 -123 510 -129 26 -1 21 -3
-20 -8 -30 -3 28 -4 130 -2 102 3 187 6 189 8 2 2 -52 4 -120 4 -254 0 -426
42 -779 188 -53 22 -237 87 -410 145 -312 104 -416 145 -538 213 -105 59 -65
47 68 -20 92 -46 215 -92 465 -175 187 -62 399 -138 470 -168 72 -31 162 -66
200 -80 84 -29 256 -73 282 -73 10 1 -23 12 -73 25 -123 33 -221 69 -404 153
-148 67 -259 106 -630 222 -91 29 -203 68 -250 87 -95 39 -214 102 -207 110 3
3 34 -11 69 -30 86 -47 214 -97 393 -152 334 -103 497 -161 635 -225 138 -64
225 -99 334 -134 89 -29 73 -16 -24 20 -52 19 -171 72 -265 119 -213 105 -302
139 -551 210 -253 71 -399 119 -492 162 -112 51 -81 49 39 -2 58 -24 238 -83
400 -129 345 -100 384 -114 634 -238 188 -93 360 -159 419 -161 17 0 45 2 61
6 l30 7 -30 -15 c-27 -14 -28 -15 -5 -11 14 2 36 7 50 11 l25 6 -25 -16 c-27
-18 -29 -18 43 1 18 5 19 4 7 -6 -13 -10 -12 -11 3 -6 10 3 28 6 40 7 12 0
-13 9 -55 19 -57 14 -85 17 -104 10 -37 -14 -54 -11 -20 3 l29 13 -43 13 c-32
9 -40 15 -29 22 12 7 12 9 -1 9 -9 1 -5 6 10 15 14 8 19 14 12 15 -7 0 -11 4
-7 9 3 6 -4 15 -16 21 -15 8 -19 9 -15 1 10 -16 -7 -13 -30 5 -15 12 -16 15
-2 10 12 -4 16 0 13 15 -3 13 0 19 8 16 7 -3 11 -10 9 -16 -1 -7 2 -10 7 -6 6
3 32 -8 59 -25 269 -165 566 -169 882 -10 442 223 803 692 945 1232 87 329 87
734 1 1075 -157 620 -592 1151 -1171 1433 -221 108 -432 173 -663 205 -140 19
-458 18 -594 -1z m532 -19 c74 -9 296 -55 342 -71 20 -7 39 -10 43 -6 3 4 9 2
13 -3 4 -6 25 -16 47 -23 243 -80 516 -232 714 -397 112 -93 188 -169 278
-280 41 -49 85 -103 98 -119 14 -16 25 -30 25 -31 0 -2 23 -40 50 -84 28 -44
50 -85 50 -91 0 -5 5 -10 11 -10 5 0 8 -4 4 -9 -3 -5 1 -15 8 -23 7 -7 21 -31
31 -53 46 -102 55 -123 72 -170 9 -27 20 -54 24 -60 3 -5 12 -30 19 -55 7 -25
17 -56 21 -70 7 -21 15 -53 25 -95 7 -29 28 -150 41 -234 14 -95 22 -469 11
-506 -4 -11 -8 -38 -11 -60 -5 -40 -40 -219 -55 -285 -18 -77 -65 -200 -112
-294 -27 -54 -49 -105 -49 -112 0 -8 -4 -14 -8 -14 -5 0 -14 -16 -22 -35 -8
-19 -17 -35 -22 -35 -4 0 -8 -6 -8 -12 0 -7 -10 -24 -21 -38 -11 -14 -38 -51
-61 -84 -22 -32 -48 -66 -57 -76 -153 -170 -209 -226 -280 -281 -46 -35 -92
-72 -102 -81 -11 -10 -19 -15 -19 -10 0 4 -6 0 -13 -8 -16 -20 -138 -83 -234
-121 -84 -33 -206 -64 -295 -74 -61 -7 -239 9 -273 25 -11 5 -42 16 -69 25
-73 23 -145 66 -253 148 -53 39 -105 79 -116 87 -11 8 -79 73 -151 145 -72 72
-146 142 -164 155 -40 29 -139 84 -167 93 -11 3 -51 15 -90 27 -104 31 -243
49 -395 50 -152 1 -339 20 -418 43 -76 22 -139 62 -208 132 -218 221 -385 540
-455 871 -30 143 -37 393 -15 539 24 151 64 318 95 390 5 11 25 58 45 105 20
47 36 91 36 98 0 6 5 12 10 12 6 0 10 4 10 10 0 5 16 34 35 64 19 30 35 58 35
62 0 13 171 233 240 307 84 90 235 219 335 285 39 25 72 49 75 52 3 4 20 13
38 21 17 8 32 17 32 21 0 5 7 8 15 8 8 0 15 5 15 10 0 6 8 10 18 10 9 0 37 11
61 25 23 14 49 25 57 25 8 0 14 4 14 9 0 5 10 12 23 16 24 7 61 22 89 36 10 5
29 9 43 9 14 0 25 5 25 10 0 6 13 10 28 10 16 0 32 3 36 7 4 4 44 15 89 25 45
9 102 22 127 28 94 26 427 34 590 15z m-1657 -3190 c35 -23 126 -51 202 -64
39 -6 178 -16 310 -21 265 -11 372 -28 492 -79 107 -44 174 -92 313 -226 135
-129 237 -219 286 -253 17 -11 31 -28 31 -36 0 -20 -27 -30 -41 -15 -8 9 -7
10 6 6 17 -6 20 15 3 30 -4 4 -5 2 0 -6 5 -9 3 -12 -6 -9 -8 3 -14 10 -14 16
0 6 -7 17 -15 24 -12 11 -12 11 -1 -4 16 -22 -1 -24 -19 -3 -9 11 -9 15 -1 15
7 0 -14 22 -46 48 -32 27 -114 102 -183 168 -130 125 -181 164 -265 206 -138
69 -277 94 -600 108 -283 12 -395 34 -470 94 -25 20 -12 21 18 1z m-24 -21 c9
0 43 -13 76 -28 87 -41 214 -63 430 -75 286 -17 437 -47 570 -113 87 -44 136
-80 254 -186 59 -52 134 -117 169 -145 35 -29 58 -54 52 -57 -6 -4 4 -17 24
-31 19 -13 30 -26 25 -30 -16 -10 77 -60 98 -53 15 5 15 4 3 -5 -13 -9 -13
-11 0 -11 12 -1 11 -3 -2 -11 -13 -7 -26 -6 -45 5 -16 8 -21 15 -13 16 13 0
13 1 0 10 -21 13 -39 12 -20 -1 12 -9 11 -10 -5 -4 -40 12 -163 88 -295 181
-255 180 -381 227 -770 289 -186 30 -299 56 -380 87 -61 24 -143 68 -137 74 2
3 24 -7 48 -20 84 -47 221 -84 444 -121 442 -72 530 -104 784 -285 151 -108
290 -194 298 -186 3 2 -9 12 -26 21 -36 18 -41 29 -8 20 22 -7 22 -7 2 9 -23
17 -39 21 -30 6 3 -5 3 -10 0 -10 -12 0 -119 75 -215 149 -248 194 -383 247
-760 296 -253 33 -366 58 -467 105 -80 37 -107 58 -60 45 17 -4 15 -2 -7 11
-20 11 -25 18 -17 24 9 5 8 9 -4 13 -9 4 -13 3 -10 -3 3 -6 1 -10 -6 -10 -7 0
-4 -7 7 -15 14 -10 15 -14 5 -15 -11 0 -10 -4 5 -16 15 -12 16 -15 2 -10 -12
4 -16 0 -13 -15 3 -14 0 -19 -9 -16 -7 3 -13 -1 -13 -8 0 -7 6 -11 13 -8 6 2
15 0 19 -6 3 -6 0 -11 -7 -11 -7 0 -2 -9 12 -20 14 -11 19 -20 11 -20 -8 0 -4
-8 10 -21 16 -13 18 -19 7 -16 -22 7 -30 -3 -17 -20 9 -10 8 -13 0 -13 -7 0
-9 -5 -6 -11 4 -6 14 -8 22 -5 8 3 11 1 8 -4 -3 -5 0 -7 8 -4 8 3 20 -2 27
-11 8 -9 8 -15 2 -15 -6 0 -13 4 -17 10 -3 5 -12 7 -20 4 -8 -4 -12 -10 -9
-16 3 -5 13 -7 21 -4 9 4 11 2 7 -6 -5 -7 -3 -8 6 -3 8 5 11 4 7 -1 -3 -5 3
-10 13 -10 14 0 16 3 8 13 -18 22 5 14 37 -12 17 -14 25 -25 18 -25 -6 0 -15
5 -18 10 -3 6 -11 10 -16 10 -6 0 -8 -4 -5 -8 2 -4 -4 -8 -14 -8 -10 0 -16 4
-14 8 3 4 -2 5 -10 2 -9 -3 -13 -10 -10 -16 3 -5 13 -7 22 -3 9 3 13 3 9 -1
-8 -9 31 -54 47 -54 6 0 -2 11 -19 25 -16 13 -25 24 -20 24 6 0 26 -14 45 -31
21 -19 27 -28 16 -24 -19 7 -19 6 -1 -14 10 -11 14 -20 8 -20 -5 0 -18 9 -28
20 -10 11 -23 20 -29 20 -5 0 5 -13 24 -30 19 -16 30 -29 24 -30 -5 0 -23 14
-39 30 -16 17 -25 30 -20 30 5 0 -9 18 -30 40 -21 22 -35 40 -30 40 5 0 -6 16
-25 35 -19 19 -30 35 -25 35 4 0 0 9 -10 20 -10 11 -15 20 -10 20 4 0 1 8 -6
18 -12 15 -11 14 8 -1 32 -27 50 -11 22 19 -12 13 -19 24 -14 24 4 0 0 9 -10
20 -10 11 -14 20 -10 20 4 0 0 9 -10 20 -10 11 -15 20 -10 20 4 0 2 6 -4 14
-9 11 -9 16 1 22 7 4 10 3 5 -1 -7 -8 20 -45 33 -45 12 0 5 47 -9 64 -7 9 -10
16 -6 16 5 0 0 10 -11 22 -19 22 -19 22 0 8 11 -8 26 -15 35 -16z m49 -113
c95 -66 227 -109 525 -167 372 -73 502 -120 697 -251 139 -92 205 -131 325
-192 55 -27 94 -50 87 -51 -27 0 -241 114 -367 198 -239 157 -358 203 -700
271 -320 64 -469 109 -553 170 -17 11 -34 21 -39 21 -4 0 0 -5 11 -11 13 -8
15 -13 6 -19 -8 -5 -7 -9 5 -13 9 -4 13 -3 10 3 -3 6 -2 10 4 10 16 0 22 -18
9 -23 -7 -2 2 -12 20 -21 19 -10 32 -20 29 -23 -3 -2 -15 1 -27 7 -15 8 -20 8
-16 1 11 -17 -10 -13 -24 4 -11 13 -10 15 6 9 14 -4 13 -1 -6 14 -14 12 -26
26 -26 31 -1 6 -2 12 -4 14 -5 6 -8 37 -3 37 3 0 17 -8 31 -19z m103 -81 c91
-47 214 -84 442 -135 366 -81 492 -128 703 -260 123 -78 272 -154 376 -194 61
-24 69 -29 50 -35 -34 -11 -164 36 -315 114 -73 37 -184 94 -247 126 -130 67
-265 113 -525 179 -99 25 -223 60 -275 76 -106 35 -246 96 -238 105 3 3 28 -6
55 -19 80 -41 208 -82 423 -137 363 -91 476 -132 655 -234 179 -103 408 -208
447 -205 8 0 7 3 -2 6 -120 42 -304 137 -475 243 -149 93 -295 143 -652 225
-111 25 -239 59 -285 74 -107 36 -237 101 -203 101 3 0 33 -14 66 -30z m-27
-41 c40 -24 47 -34 15 -24 -15 5 -19 4 -15 -4 4 -6 3 -11 -3 -11 -16 0 -23 18
-9 22 8 3 3 10 -12 18 -23 12 -24 12 -11 -3 11 -14 11 -17 0 -17 -8 0 3 -12
24 -27 20 -14 35 -29 32 -31 -3 -3 -23 9 -45 27 -23 19 -45 29 -53 25 -6 -4
-9 -4 -5 1 4 4 2 15 -5 23 -9 13 -9 14 0 8 7 -4 21 -2 30 3 10 6 19 11 20 11
1 0 18 -9 37 -21z"/>
<path d="M2053 4225 c-13 -9 -32 -47 -49 -100 -27 -82 -27 -85 -9 -105 21 -24
47 -26 78 -5 19 12 26 12 55 -2 31 -15 34 -15 57 7 28 26 27 32 -12 120 -42
93 -75 117 -120 85z m88 -96 c32 -64 38 -84 27 -90 -20 -13 -26 -11 -33 11 -5
15 -15 20 -40 20 -25 0 -35 -5 -40 -20 -3 -11 -15 -20 -26 -20 -10 0 -19 1
-19 3 0 3 44 136 55 165 11 31 37 7 76 -69z"/>
<path d="M2080 4148 c0 -9 -3 -23 -6 -32 -4 -12 0 -16 15 -16 25 0 27 18 6 46
-12 16 -14 17 -15 2z"/>
<path d="M2422 4200 c-40 -24 -66 -80 -57 -121 10 -43 51 -87 92 -98 58 -16
136 27 143 80 8 56 -1 92 -34 125 -41 41 -92 46 -144 14z m103 -22 c15 -7 33
-25 41 -41 15 -28 15 -29 -7 -22 -13 4 -29 14 -37 21 -17 17 -54 18 -70 2 -21
-21 -14 -66 12 -83 21 -14 28 -14 48 -3 l23 13 -22 3 c-14 2 -23 10 -23 22 0
16 5 17 38 9 20 -5 40 -9 44 -9 14 0 -6 -42 -30 -60 -78 -62 -183 37 -126 118
27 39 67 50 109 30z"/>
<path d="M1654 4165 c-35 -24 -49 -69 -33 -106 7 -18 13 -43 14 -57 1 -36 39
-62 92 -62 36 0 50 6 74 29 33 33 39 82 14 115 -8 11 -15 27 -15 36 0 9 -10
26 -23 38 -28 26 -92 30 -123 7z m111 -32 c16 -15 16 -17 0 -25 -10 -6 -21 -5
-30 2 -17 14 -58 3 -52 -13 2 -7 25 -14 52 -17 54 -6 71 -23 62 -62 -7 -26
-43 -48 -82 -48 -24 0 -55 23 -55 41 0 13 34 11 48 -3 9 -9 18 -9 38 1 38 17
14 41 -42 41 -33 0 -46 5 -54 20 -29 54 70 109 115 63z"/>
<path d="M2865 4111 c-22 -9 -92 -82 -119 -124 -13 -20 -15 -30 -7 -46 13 -23
43 -35 70 -26 13 4 27 -1 40 -14 37 -37 56 -42 80 -20 18 17 21 31 21 105 0
77 -2 87 -25 109 -26 27 -30 28 -60 16z m49 -123 c3 -50 4 -93 2 -95 -9 -9
-36 11 -36 28 0 29 -44 46 -75 29 -17 -9 -29 -10 -35 -4 -14 14 105 145 124
138 9 -3 15 -35 20 -96z"/>
<path d="M2857 4014 c-16 -22 -16 -25 -2 -30 21 -9 27 -1 23 29 l-3 25 -18
-24z"/>
<path d="M3172 3963 c-14 -5 -78 -102 -92 -137 -11 -30 2 -49 56 -85 54 -37
81 -39 93 -8 5 12 23 39 40 61 50 62 38 126 -29 161 -30 15 -45 17 -68 8z m58
-40 c14 -9 28 -22 32 -27 22 -31 -7 -86 -44 -86 -18 0 -19 -5 -13 -41 7 -39 6
-40 -13 -30 -15 8 -22 23 -24 54 l-3 42 -14 -27 c-15 -30 -19 -32 -39 -20 -10
7 -2 26 30 80 24 39 48 71 53 72 6 0 22 -8 35 -17z"/>
<path d="M3191 3879 c-11 -18 -11 -23 1 -30 18 -12 24 -11 38 6 10 12 10 18 0
30 -17 20 -23 19 -39 -6z"/>
<path d="M1117 3912 c-22 -24 -21 -34 3 -82 27 -54 78 -110 99 -110 22 0 51
31 51 54 0 20 -64 125 -88 144 -22 17 -46 15 -65 -6z m115 -159 c-13 -11 -22
-2 -62 60 -42 64 -46 73 -32 85 14 10 23 2 63 -60 41 -64 45 -74 31 -85z"/>
<path d="M863 3728 c-11 -13 -23 -31 -26 -40 -4 -10 -15 -18 -26 -18 -11 0
-29 -12 -40 -26 -16 -21 -18 -30 -10 -52 25 -66 91 -152 116 -152 8 0 43 28
79 63 36 34 77 72 90 84 34 31 21 58 -56 116 -70 52 -97 58 -127 25z m107 -54
c36 -26 67 -49 69 -51 3 -2 -2 -10 -10 -18 -12 -13 -20 -10 -58 20 -24 20 -46
34 -48 32 -2 -2 9 -25 23 -51 23 -41 25 -50 12 -62 -12 -12 -20 -10 -61 16
-26 16 -50 30 -53 30 -3 0 10 -22 30 -49 30 -43 33 -51 20 -62 -18 -15 -21
-12 -73 71 -30 48 -37 67 -29 77 15 19 25 17 79 -17 27 -16 49 -27 49 -25 0 3
-12 28 -26 56 -20 40 -23 54 -13 65 16 20 18 19 89 -32z"/>
<path d="M3661 3510 c-31 -23 -48 -29 -67 -24 -31 8 -64 -19 -64 -52 0 -30 54
-74 90 -74 33 0 125 68 142 106 10 21 8 28 -12 49 -30 32 -38 31 -89 -5z m74
-20 c0 -17 -100 -100 -120 -100 -8 0 -27 11 -42 24 -28 24 -28 25 -8 40 18 13
21 13 27 -5 10 -27 19 -24 74 21 49 39 69 45 69 20z"/>
<path d="M587 3420 c-15 -12 -27 -29 -27 -39 0 -9 -13 -30 -30 -46 -16 -16
-30 -36 -30 -46 0 -21 41 -49 72 -49 15 -1 32 -14 50 -40 15 -22 34 -40 42
-40 16 0 56 46 56 64 0 7 14 25 30 41 17 16 30 34 30 40 0 20 -35 45 -63 45
-14 0 -31 6 -36 13 -6 6 -23 27 -38 45 l-28 34 -28 -22z m53 -72 c9 -26 14
-28 65 -28 53 0 55 -1 43 -20 -9 -14 -24 -20 -51 -20 l-38 0 16 -30 c14 -27
14 -33 1 -52 l-15 -21 -11 27 c-5 15 -13 38 -16 52 -6 24 -10 25 -60 22 -58
-3 -60 -2 -40 24 10 13 22 16 50 11 l37 -6 -17 36 c-15 31 -15 38 -4 53 16 18
16 18 40 -48z"/>
<path d="M3825 3288 c-58 -31 -103 -67 -110 -89 -8 -24 38 -105 64 -114 12 -3
37 7 69 27 28 18 64 41 81 50 20 11 31 25 31 39 0 41 -55 110 -87 109 -4 -1
-26 -10 -48 -22z m88 -50 c23 -38 24 -44 9 -52 -10 -6 -17 -5 -19 1 -2 6 -10
19 -18 29 -11 15 -16 16 -26 7 -9 -9 -8 -17 5 -37 9 -15 14 -26 12 -26 -2 0
-11 -3 -19 -6 -10 -3 -20 4 -29 20 -10 19 -17 23 -28 16 -13 -8 -13 -13 3 -39
15 -27 16 -29 1 -35 -9 -4 -18 -5 -19 -4 -25 38 -46 80 -42 85 9 8 131 81 138
82 4 1 18 -18 32 -41z"/>
<path d="M362 3037 c-12 -13 -22 -33 -22 -44 0 -25 91 -128 131 -149 26 -13
30 -13 49 6 12 12 20 33 20 53 0 23 8 41 25 57 60 57 14 100 -108 100 -64 0
-76 -3 -95 -23z m201 -37 c-3 -13 -14 -20 -28 -20 -31 0 -57 -57 -33 -71 15
-8 14 -49 0 -49 -15 0 -132 126 -132 142 0 16 11 18 99 18 94 0 99 -1 94 -20z"/>
<path d="M438 2968 c19 -20 24 -21 32 -8 16 25 12 30 -22 30 l-32 0 22 -22z"/>
<path d="M3956 2967 c-33 -18 -68 -45 -79 -59 -18 -24 -18 -27 -3 -57 9 -17
21 -31 27 -31 7 0 8 -11 4 -29 -7 -34 7 -66 36 -81 32 -18 162 7 189 35 20 22
21 25 6 53 -9 17 -16 42 -16 55 0 14 -7 30 -15 37 -8 7 -15 24 -15 39 0 36
-26 71 -53 71 -12 0 -49 -15 -81 -33z m104 -22 c0 -6 -24 -23 -52 -38 l-53
-27 62 3 c58 3 73 -3 73 -29 0 -2 -24 -20 -52 -40 l-53 -36 40 7 c22 3 50 9
61 11 14 4 24 0 28 -12 4 -9 5 -19 3 -21 -3 -2 -42 -10 -87 -17 -74 -12 -83
-11 -87 3 -7 29 -5 33 44 68 l48 34 -64 -2 c-58 -2 -65 0 -72 19 -7 18 1 26
69 65 74 43 91 45 92 12z"/>
<path d="M1074 2821 c-60 -15 -70 -37 -31 -68 13 -10 29 -28 35 -40 16 -30 17
-795 1 -825 -6 -12 -22 -30 -36 -42 -32 -28 -22 -53 26 -65 20 -5 190 -8 378
-7 l341 1 26 24 c27 25 28 25 126 -3 36 -10 96 -16 177 -16 102 0 132 4 194
25 80 27 131 63 171 121 35 51 41 90 24 147 -8 26 -13 47 -11 47 2 0 -7 28
-21 62 -13 34 -22 64 -19 66 4 4 31 -51 48 -98 3 -8 6 1 6 21 1 39 -30 89 -55
89 -8 0 -21 15 -29 34 -26 61 -112 113 -165 99 -12 -3 -28 1 -38 10 -10 9 -65
28 -122 42 -107 25 -198 63 -221 91 -20 25 -17 89 6 114 11 12 40 34 65 48 38
23 55 26 130 26 74 0 91 -3 135 -27 64 -36 77 -47 149 -130 32 -37 66 -67 76
-67 24 0 45 27 69 88 24 64 18 89 -31 125 -166 124 -478 145 -652 43 -141 -83
-195 -221 -127 -328 49 -78 141 -133 277 -167 172 -43 255 -61 284 -61 16 0
30 -4 30 -8 0 -5 17 -30 37 -56 29 -37 37 -58 41 -99 4 -47 1 -57 -23 -86 -46
-54 -106 -76 -210 -76 -78 0 -97 4 -146 27 -89 44 -99 57 -99 121 0 62 -10 72
-52 51 l-27 -14 -34 73 c-43 89 -61 107 -85 83 -14 -14 -17 -39 -18 -159 l-1
-142 -44 -20 c-35 -15 -71 -20 -182 -23 l-138 -4 3 420 3 421 34 35 c40 42 36
61 -16 75 -42 12 -211 13 -259 2z m265 -48 c-64 -26 -64 -22 -67 -507 l-3
-438 158 4 c147 4 162 6 218 31 33 16 70 35 83 43 l23 15 -25 20 c-25 20 -26
23 -26 145 0 70 4 123 9 120 5 -3 16 -29 26 -58 17 -53 74 -158 86 -158 3 0
14 18 24 40 10 22 22 40 27 40 11 0 11 -2 -13 -57 l-21 -48 38 -33 c113 -98
275 -124 414 -66 130 55 157 187 62 295 -28 32 -98 197 -88 207 3 2 29 -7 59
-21 l54 -24 56 -152 57 -152 -18 -42 c-25 -56 -86 -109 -158 -138 -51 -20 -77
-23 -194 -23 -135 -1 -178 8 -292 58 -13 6 -18 1 -24 -28 l-6 -36 -382 0
c-339 1 -377 2 -348 15 60 26 62 39 62 477 0 354 -2 396 -18 428 -9 19 -26 37
-37 38 -11 2 -24 8 -29 13 -6 5 58 9 160 8 160 -1 167 -2 133 -16z m899 1 c80
-16 202 -67 239 -100 l21 -19 -26 -69 -26 -68 -20 28 c-45 64 -144 158 -191
182 -66 34 -189 42 -262 18 -94 -31 -165 -117 -149 -181 17 -69 107 -120 277
-158 79 -18 104 -28 110 -43 34 -85 56 -144 54 -144 -1 0 -19 7 -39 15 -20 9
-81 25 -134 35 -190 39 -281 79 -346 150 -50 56 -57 112 -22 185 72 145 286
216 514 169z"/>
<path d="M2802 2819 c-44 -13 -50 -34 -19 -67 14 -15 31 -40 36 -55 16 -41 15
-758 -1 -792 -22 -48 -73 -25 -166 78 -19 20 -40 37 -46 37 -32 0 -87 -99 -80
-143 8 -56 92 -99 194 -100 96 -1 164 22 225 75 90 80 89 73 95 484 l5 361 37
41 c21 23 35 48 32 56 -3 8 -25 19 -49 25 -53 13 -217 13 -263 0z m293 -39
c-3 -5 -15 -10 -25 -10 -11 0 -28 -12 -37 -27 -16 -24 -19 -64 -23 -388 l-5
-360 -29 -52 c-67 -121 -238 -170 -367 -105 -33 16 -53 33 -52 42 8 54 53 149
53 111 0 -21 83 -110 123 -131 52 -28 89 -22 114 17 16 25 18 62 18 423 0 442
-1 447 -63 473 -35 14 -29 15 131 16 110 1 166 -2 162 -9z"/>
<path d="M382 2680 c-18 -15 -33 -18 -73 -13 -54 6 -89 -13 -89 -48 0 -38 93
-79 179 -79 55 0 90 84 57 135 -20 30 -43 31 -74 5z m53 -54 c-4 -22 -10 -44
-14 -49 -4 -4 -44 0 -89 9 -67 14 -82 20 -82 35 0 23 17 24 90 4 30 -8 56 -15
58 -15 1 0 2 9 2 19 0 32 11 50 26 44 12 -4 14 -15 9 -47z"/>
<path d="M4062 2550 c-70 -10 -92 -31 -92 -87 0 -55 37 -100 69 -84 10 6 47
12 81 14 46 4 67 10 77 23 19 27 16 82 -8 115 -22 31 -32 33 -127 19z m110
-122 c-16 -16 -32 0 -32 32 0 22 -4 28 -15 24 -9 -4 -15 -19 -15 -35 0 -39
-26 -38 -35 0 -9 40 -39 31 -33 -10 3 -20 0 -29 -13 -32 -12 -3 -19 3 -23 25
-15 74 -14 74 77 84 l82 9 9 -43 c5 -28 5 -47 -2 -54z"/>
<path d="M4001 2194 c-29 -37 -28 -94 3 -123 27 -25 45 -21 80 18 14 15 31 21
62 21 45 0 74 19 74 48 -1 43 -43 62 -135 62 -57 0 -66 -3 -84 -26z m120 -14
c64 0 69 -2 69 -21 0 -20 -4 -21 -70 -17 l-70 4 0 -34 c0 -26 -4 -33 -17 -30
-10 2 -18 9 -17 16 1 6 2 30 3 53 1 33 4 40 17 35 9 -3 47 -6 85 -6z"/>
<path d="M3956 1878 c-25 -40 -29 -86 -12 -113 20 -30 40 -31 73 -6 19 16 34
19 74 14 39 -5 53 -2 69 12 43 39 7 85 -81 104 -77 17 -107 14 -123 -11z m119
-25 c60 -13 75 -20 75 -35 0 -21 -7 -22 -82 -4 -32 7 -60 11 -63 8 -3 -3 -5
-16 -5 -29 0 -16 -6 -23 -20 -23 -11 0 -20 3 -20 6 0 21 24 94 31 94 5 0 42
-7 84 -17z"/>
<path d="M3882 1593 c-16 -6 -52 -76 -52 -102 0 -21 44 -61 66 -61 14 0 23 -4
81 -34 40 -21 64 -11 87 38 35 74 16 103 -97 145 -60 22 -64 23 -85 14z m89
-54 c41 -17 76 -33 78 -35 4 -4 -28 -94 -34 -94 -2 0 -10 3 -19 6 -14 5 -14 9
-1 34 8 15 11 30 8 34 -14 14 -33 4 -39 -20 -4 -16 -12 -24 -23 -21 -9 2 -14
10 -12 18 15 54 -10 79 -31 30 -9 -22 -17 -28 -27 -22 -11 7 -11 16 4 55 10
25 19 46 20 46 2 0 36 -14 76 -31z"/>
<path d="M3742 1303 c-6 -2 -28 -29 -48 -58 -29 -45 -33 -57 -24 -74 6 -12 17
-21 25 -21 8 0 32 -16 54 -35 50 -45 95 -48 133 -7 64 66 54 99 -45 163 -59
39 -70 42 -95 32z m88 -70 l70 -46 -16 -26 c-21 -34 -43 -51 -66 -51 -25 0
-61 38 -54 57 5 13 -1 15 -38 11 l-45 -5 16 24 c14 21 22 24 50 20 39 -7 43 5
7 22 -21 9 -24 14 -14 26 7 8 14 15 16 15 2 0 36 -21 74 -47z"/>
<path d="M3801 1186 c-17 -20 15 -52 35 -35 19 16 18 26 -5 38 -14 8 -22 7
-30 -3z"/>
<path d="M3530 1026 c-59 -19 -96 -97 -70 -146 14 -26 112 -90 137 -90 28 0
73 37 88 73 17 41 5 72 -48 123 -52 50 -63 55 -107 40z m65 -46 c0 -10 -13
-17 -35 -20 -27 -4 -36 -10 -38 -27 -4 -28 6 -29 57 -2 32 16 44 18 60 9 38
-20 26 -82 -21 -106 -35 -18 -75 -10 -57 12 6 8 19 14 29 14 24 0 46 28 33 41
-7 7 -21 4 -44 -10 -41 -25 -57 -26 -81 -4 -26 23 -22 50 12 84 32 33 85 38
85 9z"/>
<path d="M764 1071 c10 -15 134 -61 209 -77 40 -8 162 -24 272 -35 110 -10
237 -26 282 -34 171 -32 316 -94 435 -187 154 -121 287 -232 283 -236 -5 -5
-53 32 -197 150 -250 207 -387 255 -863 298 -141 13 -276 41 -342 70 -51 22
-72 20 -26 -3 89 -45 195 -69 449 -102 407 -53 544 -102 765 -276 174 -136
266 -198 230 -155 -8 10 -9 15 -1 18 6 2 -33 40 -87 86 -54 45 -132 112 -173
148 -191 168 -352 221 -757 249 -240 17 -341 34 -422 71 -59 27 -65 28 -57 15z"/>
<path d="M2470 334 c-25 -15 -25 -15 -1 -8 16 4 21 3 17 -5 -5 -7 -1 -8 10 -4
11 4 13 8 6 11 -7 2 -10 8 -6 13 7 12 4 11 -26 -7z"/>
<path d="M2618 133 c12 -2 32 -2 45 0 12 2 2 4 -23 4 -25 0 -35 -2 -22 -4z"/>
<path d="M2458 103 c18 -2 45 -2 60 0 15 2 0 4 -33 4 -33 0 -45 -2 -27 -4z"/>
</g>
</svg>
